<?xml version="1.0" encoding="iso-8859-1"?>
<!-- Generator: Adobe Illustrator 19.0.0, SVG Export Plug-In . SVG Version: 6.00 Build 0)  -->
<svg version="1.1" id="Layer_1" xmlns="http://www.w3.org/2000/svg" xmlns:xlink="http://www.w3.org/1999/xlink" x="0px" y="0px"
	 viewBox="0 0 472.615 472.615" style="enable-background:new 0 0 472.615 472.615;" xml:space="preserve">
<g>
	<g>
		<path d="M56.576,0.019V19.31c218.77,0,396.749,177.984,396.749,396.754h19.291C472.615,186.66,285.98,0.019,56.576,0.019z"/>
	</g>
</g>
<g>
	<g>
		<path d="M56.576,87.476v19.291c170.548,0,309.297,138.753,309.297,309.296h19.291C385.164,234.876,237.758,87.476,56.576,87.476z"
			/>
	</g>
</g>
<g>
	<g>
		<path d="M56.576,174.923v19.291c122.327,0,221.845,99.523,221.845,221.85h19.291C297.711,283.103,189.537,174.923,56.576,174.923z
			"/>
	</g>
</g>
<g>
	<g>
		<path d="M56.576,262.381v19.291c74.105,0,134.393,60.292,134.393,134.392h19.291C210.26,331.319,141.316,262.381,56.576,262.381z"
			/>
	</g>
</g>
<g>
	<g>
		<circle cx="56.576" cy="416.02" r="56.576"/>
	</g>
</g>
<g>
</g>
<g>
</g>
<g>
</g>
<g>
</g>
<g>
</g>
<g>
</g>
<g>
</g>
<g>
</g>
<g>
</g>
<g>
</g>
<g>
</g>
<g>
</g>
<g>
</g>
<g>
</g>
<g>
</g>
</svg>
